<?xml version="1.0" encoding="utf-8"?>
<!-- Generator: Adobe Illustrator 23.1.1, SVG Export Plug-In . SVG Version: 6.00 Build 0)  -->
<svg version="1.1" id="Layer_1" xmlns="http://www.w3.org/2000/svg" xmlns:xlink="http://www.w3.org/1999/xlink" x="0px" y="0px"
	 viewBox="0 0 100 100" style="enable-background:new 0 0 100 100;" xml:space="preserve">
<style type="text/css">
	.st0{fill:#AE9CDB;stroke:#3F3F3F;stroke-width:3;stroke-miterlimit:10;}
	.st1{fill:#6E678C;stroke:#3F3F3F;stroke-width:3;stroke-miterlimit:10;}
</style>
<path class="st0" d="M95,75.2c0,0,0,19.1-90,19.1C5,88.8,5,73.8,5,68c90,0,90-19.1,90-19.1V75.2z"/>
<path class="st1" d="M57,42.8c-4.8,2.7-11.5,6-19.1,8.8c10.4,0.7,18.7,1.7,25.4,2.9L57,42.8z"/>
<path class="st1" d="M78,35.2L64.5,54.7c2.8,0.5,5.3,1.1,7.6,1.7C90,51.6,90,45.4,90,45.4v-0.9C90,44.4,90,39.7,78,35.2z"/>
<path class="st0" d="M92.2,5.6L43.3,6.3l5.4,10.2c-10,5-24.3,10.5-38.6,10.5c0,5.5,0,19.7,0,25C30.8,52,51.5,40.4,59,35.7l5.4,10.2
	L92.2,5.6z"/>
</svg>
